<svg width="29" height="52" viewBox="0 0 29 52" fill="none" xmlns="http://www.w3.org/2000/svg">
<path d="M27.5007 50.5178L27.5005 50.518C27.2992 50.7183 27.0592 50.8773 26.7946 50.9857C26.53 51.0942 26.246 51.15 25.9592 51.15C25.6724 51.15 25.3884 51.0942 25.1238 50.9857C24.8592 50.8773 24.6192 50.7183 24.4179 50.518L24.4176 50.5177L1.52089 27.6118L1.52087 27.6117C1.09116 27.1818 0.850001 26.6043 0.850001 26.0022C0.850001 25.4001 1.09116 24.8227 1.52087 24.3927L1.62697 24.4987L1.52088 24.3927L24.4132 1.48677C24.6146 1.285 24.8552 1.12484 25.1207 1.01554C25.3862 0.906258 25.6713 0.849998 25.9592 0.849998C26.2471 0.849998 26.5323 0.906258 26.7977 1.01554C27.0632 1.12484 27.3038 1.285 27.5052 1.48677C27.9182 1.8992 28.15 2.45359 28.15 3.03164C28.15 3.61056 27.9131 4.16475 27.5007 4.5766C27.5007 4.57662 27.5007 4.57664 27.5007 4.57667L6.08801 26.0022L27.5007 47.4277C27.9137 47.8402 28.1456 48.3946 28.1456 48.9728C28.1456 49.5509 27.9137 50.1054 27.5007 50.5178Z" fill="#DDDDDD" stroke="#DDDDDD" stroke-width="0.3"/>
</svg>
